<?xml version="1.0" encoding="UTF-8"?>
<!DOCTYPE svg PUBLIC "-//W3C//DTD SVG 1.1//EN" "http://www.w3.org/Graphics/SVG/1.1/DTD/svg11.dtd">
<svg xmlns="http://www.w3.org/2000/svg" version="1.1" width="509px" height="97px" style="shape-rendering:geometricPrecision; text-rendering:geometricPrecision; image-rendering:optimizeQuality; fill-rule:evenodd; clip-rule:evenodd" xmlns:xlink="http://www.w3.org/1999/xlink">
<g><path style="opacity:1" fill="#fefdfd" d="M -0.5,-0.5 C 169.167,-0.5 338.833,-0.5 508.5,-0.5C 508.5,31.8333 508.5,64.1667 508.5,96.5C 338.833,96.5 169.167,96.5 -0.5,96.5C -0.5,64.1667 -0.5,31.8333 -0.5,-0.5 Z"/></g>
<g><path style="opacity:1" fill="#9d9db9" d="M 225.5,31.5 C 226.167,33.5 226.833,35.5 227.5,37.5C 227.44,38.0431 227.107,38.3764 226.5,38.5C 225.526,36.2573 225.192,33.924 225.5,31.5 Z"/></g>
<g><path style="opacity:1" fill="#e31122" d="M 164.5,34.5 C 163.412,37.5558 163.412,40.5558 164.5,43.5C 164.5,57.5 164.5,71.5 164.5,85.5C 160.167,85.5 155.833,85.5 151.5,85.5C 151.666,76.8269 151.5,68.1603 151,59.5C 147.081,65.6697 143.414,72.0031 140,78.5C 136.667,81.1667 133.333,81.1667 130,78.5C 126.73,72.2362 123.064,66.2362 119,60.5C 118.5,69.1603 118.334,77.8269 118.5,86.5C 114.167,86.5 109.833,86.5 105.5,86.5C 105.5,69.1667 105.5,51.8333 105.5,34.5C 109.514,34.3345 113.514,34.5012 117.5,35C 123.459,44.4164 129.292,53.9164 135,63.5C 141.21,54.2507 147.043,44.7507 152.5,35C 156.486,34.5012 160.486,34.3345 164.5,34.5 Z"/></g>
<g><path style="opacity:1" fill="#e73648" d="M 238.5,34.5 C 238.171,49.3428 238.504,64.0095 239.5,78.5C 239.158,79.3382 238.492,79.6716 237.5,79.5C 237.171,64.324 237.504,49.324 238.5,34.5 Z"/></g>
<g><path style="opacity:1" fill="#e21725" d="M 238.5,34.5 C 248.839,34.3335 259.172,34.5002 269.5,35C 277.746,35.4354 282.746,39.6021 284.5,47.5C 284.319,52.7042 281.985,56.5375 277.5,59C 284.254,62.0102 287.254,67.1768 286.5,74.5C 278.496,79.3344 269.829,81.1678 260.5,80C 257.894,79.2082 255.894,77.7082 254.5,75.5C 259.93,75.839 265.264,75.339 270.5,74C 271.591,71.9361 271.758,69.7695 271,67.5C 270.184,66.1772 269.017,65.5106 267.5,65.5C 264.5,64.1667 261.5,64.1667 258.5,65.5C 256.5,65.5 254.5,65.5 252.5,65.5C 252.5,67.1667 252.5,68.8333 252.5,70.5C 248.678,73.9866 244.345,76.6532 239.5,78.5C 238.504,64.0095 238.171,49.3428 238.5,34.5 Z"/></g>
<g><path style="opacity:1" fill="#e20a20" d="M 308.5,71.5 C 303.733,68.9182 299.566,69.9182 296,74.5C 295.405,73.1011 295.572,71.7678 296.5,70.5C 296.145,69.4777 295.478,68.811 294.5,68.5C 294.5,57.1667 294.5,45.8333 294.5,34.5C 299.167,34.5 303.833,34.5 308.5,34.5C 308.5,46.8333 308.5,59.1667 308.5,71.5 Z"/></g>
<g><path style="opacity:1" fill="#e20a20" d="M 342.5,74.5 C 333.162,82.2629 325.495,80.9296 319.5,70.5C 319.5,58.5 319.5,46.5 319.5,34.5C 324.167,34.5 328.833,34.5 333.5,34.5C 333.5,47.8333 333.5,61.1667 333.5,74.5C 336.5,74.5 339.5,74.5 342.5,74.5 Z"/></g>
<g><path style="opacity:1" fill="#e20b20" d="M 400.5,54.5 C 400.5,57.8333 400.5,61.1667 400.5,64.5C 392.981,64.175 385.648,64.5084 378.5,65.5C 378.5,68.5 378.5,71.5 378.5,74.5C 386.984,75.493 395.651,75.8264 404.5,75.5C 404.5,78.8333 404.5,82.1667 404.5,85.5C 391.167,85.5 377.833,85.5 364.5,85.5C 364.5,68.5 364.5,51.5 364.5,34.5C 377.833,34.5 391.167,34.5 404.5,34.5C 404.5,38.1667 404.5,41.8333 404.5,45.5C 395.833,45.5 387.167,45.5 378.5,45.5C 378.5,48.5 378.5,51.5 378.5,54.5C 385.833,54.5 393.167,54.5 400.5,54.5 Z"/></g>
<g><path style="opacity:1" fill="#fef9fa" d="M 252.5,45.5 C 257.511,45.3341 262.511,45.5007 267.5,46C 270.399,49.1558 270.065,51.8225 266.5,54C 261.845,54.4992 257.179,54.6658 252.5,54.5C 252.5,51.5 252.5,48.5 252.5,45.5 Z"/></g>
<g><path style="opacity:1" fill="#332362" d="M 225.5,31.5 C 225.192,33.924 225.526,36.2573 226.5,38.5C 227.107,38.3764 227.44,38.0431 227.5,37.5C 231.305,37.6425 232.971,39.6425 232.5,43.5C 231.812,48.2492 230.812,52.9159 229.5,57.5C 227.713,61.0748 225.879,64.7415 224,68.5C 223.174,71.2116 223.674,73.5449 225.5,75.5C 225.859,77.371 226.859,78.871 228.5,80C 231.696,80.8045 234.696,80.6378 237.5,79.5C 238.492,79.6716 239.158,79.3382 239.5,78.5C 244.345,76.6532 248.678,73.9866 252.5,70.5C 254.525,68.8036 256.525,67.137 258.5,65.5C 261.5,64.1667 264.5,64.1667 267.5,65.5C 267.822,67.7224 267.155,69.5557 265.5,71C 261.843,72.8224 258.176,74.3224 254.5,75.5C 255.894,77.7082 257.894,79.2082 260.5,80C 269.829,81.1678 278.496,79.3344 286.5,74.5C 289.563,72.9748 292.23,70.9748 294.5,68.5C 295.478,68.811 296.145,69.4777 296.5,70.5C 295.572,71.7678 295.405,73.1011 296,74.5C 299.566,69.9182 303.733,68.9182 308.5,71.5C 309.722,76.448 311.722,76.6147 314.5,72C 316.025,70.9914 317.692,70.4914 319.5,70.5C 325.495,80.9296 333.162,82.2629 342.5,74.5C 344.186,72.9835 346.019,71.6502 348,70.5C 348.5,70.8333 349,71.1667 349.5,71.5C 348.807,72.5178 348.141,73.5178 347.5,74.5C 342.843,78.9121 337.343,81.5788 331,82.5C 325.927,82.0535 322.094,79.7202 319.5,75.5C 319.157,73.7748 318.157,73.2748 316.5,74C 313.964,76.705 311.297,79.205 308.5,81.5C 307.79,79.2537 307.29,76.9204 307,74.5C 305.062,72.0216 302.895,71.8549 300.5,74C 298.294,76.0367 296.294,78.2034 294.5,80.5C 293.85,80.8039 293.183,81.1373 292.5,81.5C 291.832,79.0743 291.498,76.741 291.5,74.5C 289.302,76.0981 286.969,77.4314 284.5,78.5C 274.703,84.2491 264.703,84.7491 254.5,80C 253.213,78.5905 252.046,77.0905 251,75.5C 246.519,78.3189 242.019,80.9855 237.5,83.5C 231.468,84.6252 226.468,82.9586 222.5,78.5C 219.061,68.5938 218.728,58.5938 221.5,48.5C 221.167,48.1667 220.833,47.8333 220.5,47.5C 218.302,49.0981 215.969,50.4314 213.5,51.5C 208.852,52.8323 204.186,54.1656 199.5,55.5C 204.664,58.5823 209.664,61.9156 214.5,65.5C 217.791,71.462 216.457,76.2954 210.5,80C 202.475,81.8827 194.475,83.0494 186.5,83.5C 180.316,81.5332 173.982,79.6999 167.5,78C 166.007,76.8438 166.174,76.0104 168,75.5C 171.35,76.9749 174.85,77.6416 178.5,77.5C 179.766,78.0899 181.099,78.5899 182.5,79C 190.167,79.6667 197.833,79.6667 205.5,79C 208.66,78.0092 211.16,76.1759 213,73.5C 213.765,71.9343 213.598,70.6009 212.5,69.5C 211.199,66.1521 208.866,63.6521 205.5,62C 200.262,59.8653 194.929,58.0319 189.5,56.5C 188.584,56.5427 187.917,56.8761 187.5,57.5C 185.417,63.7436 182.751,69.7436 179.5,75.5C 179.167,75 178.833,74.5 178.5,74C 180.369,68.7252 182.036,63.3919 183.5,58C 183.415,56.8926 183.081,55.8926 182.5,55C 180.285,54.8295 178.285,54.1628 176.5,53C 179.561,51.8842 182.728,51.0508 186,50.5C 187.405,45.4524 188.905,40.4524 190.5,35.5C 190.821,33.9519 191.821,33.2852 193.5,33.5C 192.035,39.4932 190.702,45.4932 189.5,51.5C 196.532,52.5833 203.532,51.9167 210.5,49.5C 215.748,48.2369 219.415,45.2369 221.5,40.5C 224.725,34.9521 223.725,30.1188 218.5,26C 199.632,18.6911 182.798,21.8578 168,35.5C 166.798,37.6775 166.298,40.0108 166.5,42.5C 172.08,42.14 177.247,40.4733 182,37.5C 182.765,37.5699 183.265,37.9033 183.5,38.5C 182.833,39.8333 181.833,40.8333 180.5,41.5C 177.521,42.6535 174.521,43.8202 171.5,45C 169.402,45.6776 167.402,45.5109 165.5,44.5C 165.5,43.8333 165.167,43.5 164.5,43.5C 163.412,40.5558 163.412,37.5558 164.5,34.5C 179.975,19.6366 197.975,15.8033 218.5,23C 222.143,24.8048 224.476,27.6381 225.5,31.5 Z"/></g>
<g><path style="opacity:1" fill="#f6eff2" d="M 210.5,49.5 C 203.532,51.9167 196.532,52.5833 189.5,51.5C 194.294,45.4771 200.294,43.9771 207.5,47C 208.942,47.3768 209.942,48.2101 210.5,49.5 Z"/></g>
<g><path style="opacity:1" fill="#dad6e2" d="M 228.5,50.5 C 227.974,48.7697 226.974,47.4363 225.5,46.5C 225.595,43.6424 226.762,41.3091 229,39.5C 230.815,43.2675 230.649,46.9342 228.5,50.5 Z"/></g>
<g><path style="opacity:1" fill="#e11223" d="M 193.5,33.5 C 203.809,32.4106 213.143,34.7439 221.5,40.5C 219.415,45.2369 215.748,48.2369 210.5,49.5C 209.942,48.2101 208.942,47.3768 207.5,47C 200.294,43.9771 194.294,45.4771 189.5,51.5C 190.702,45.4932 192.035,39.4932 193.5,33.5 Z"/></g>
<g><path style="opacity:1" fill="#f9f7f9" d="M 221.5,40.5 C 213.143,34.7439 203.809,32.4106 193.5,33.5C 191.821,33.2852 190.821,33.9519 190.5,35.5C 188.046,36.2271 185.713,37.2271 183.5,38.5C 183.265,37.9033 182.765,37.5699 182,37.5C 177.247,40.4733 172.08,42.14 166.5,42.5C 166.298,40.0108 166.798,37.6775 168,35.5C 182.798,21.8578 199.632,18.6911 218.5,26C 223.725,30.1188 224.725,34.9521 221.5,40.5 Z"/></g>
<g><path style="opacity:1" fill="#f4edf0" d="M 213.5,51.5 C 215.649,56.0286 215.982,60.6952 214.5,65.5C 209.664,61.9156 204.664,58.5823 199.5,55.5C 204.186,54.1656 208.852,52.8323 213.5,51.5 Z"/></g>
<g><path style="opacity:1" fill="#dd0f24" d="M 225.5,46.5 C 226.974,47.4363 227.974,48.7697 228.5,50.5C 227.166,55.6684 225.332,60.6684 223,65.5C 221.831,58.7622 222.665,52.4289 225.5,46.5 Z"/></g>
<g><path style="opacity:1" fill="#fbf7f8" d="M 212.5,69.5 C 211.146,71.6959 209.146,73.1959 206.5,74C 193.552,76.2225 187.218,70.7225 187.5,57.5C 187.917,56.8761 188.584,56.5427 189.5,56.5C 194.929,58.0319 200.262,59.8653 205.5,62C 208.866,63.6521 211.199,66.1521 212.5,69.5 Z"/></g>
<g><path style="opacity:1" fill="#e83e50" d="M 400.5,54.5 C 401.482,57.9619 401.815,61.6286 401.5,65.5C 393.833,65.5 386.167,65.5 378.5,65.5C 385.648,64.5084 392.981,64.175 400.5,64.5C 400.5,61.1667 400.5,57.8333 400.5,54.5 Z"/></g>
<g><path style="opacity:1" fill="#eff0f5" d="M 258.5,65.5 C 256.525,67.137 254.525,68.8036 252.5,70.5C 252.5,68.8333 252.5,67.1667 252.5,65.5C 254.5,65.5 256.5,65.5 258.5,65.5 Z"/></g>
<g><path style="opacity:1" fill="#f6eff2" d="M 267.5,65.5 C 269.017,65.5106 270.184,66.1772 271,67.5C 271.758,69.7695 271.591,71.9361 270.5,74C 265.264,75.339 259.93,75.839 254.5,75.5C 258.176,74.3224 261.843,72.8224 265.5,71C 267.155,69.5557 267.822,67.7224 267.5,65.5 Z"/></g>
<g><path style="opacity:1" fill="#e01525" d="M 190.5,35.5 C 188.905,40.4524 187.405,45.4524 186,50.5C 182.728,51.0508 179.561,51.8842 176.5,53C 178.285,54.1628 180.285,54.8295 182.5,55C 183.081,55.8926 183.415,56.8926 183.5,58C 182.036,63.3919 180.369,68.7252 178.5,74C 178.833,74.5 179.167,75 179.5,75.5C 182.751,69.7436 185.417,63.7436 187.5,57.5C 187.218,70.7225 193.552,76.2225 206.5,74C 209.146,73.1959 211.146,71.6959 212.5,69.5C 213.598,70.6009 213.765,71.9343 213,73.5C 211.16,76.1759 208.66,78.0092 205.5,79C 197.833,79.6667 190.167,79.6667 182.5,79C 181.099,78.5899 179.766,78.0899 178.5,77.5C 169.945,64.9532 170.611,52.9532 180.5,41.5C 181.833,40.8333 182.833,39.8333 183.5,38.5C 185.713,37.2271 188.046,36.2271 190.5,35.5 Z"/></g>
<g><path style="opacity:1" fill="#df1826" d="M 229.5,57.5 C 230.366,64.0495 229.033,70.0495 225.5,75.5C 223.674,73.5449 223.174,71.2116 224,68.5C 225.879,64.7415 227.713,61.0748 229.5,57.5 Z"/></g>
<g><path style="opacity:1" fill="#eaeaf0" d="M 261.5,66.5 C 265.135,66.6556 265.468,67.8223 262.5,70C 255.122,72.138 254.789,70.9714 261.5,66.5 Z"/></g>
<g><path style="opacity:1" fill="#f0848f" d="M 164.5,43.5 C 165.167,43.5 165.5,43.8333 165.5,44.5C 165.5,58.5 165.5,72.5 165.5,86.5C 160.637,86.8195 155.97,86.4861 151.5,85.5C 155.833,85.5 160.167,85.5 164.5,85.5C 164.5,71.5 164.5,57.5 164.5,43.5 Z"/></g>
<g><path style="opacity:1" fill="#e11524" d="M 222.5,78.5 C 219.374,82.2383 215.374,84.7383 210.5,86C 204.5,86.6667 198.5,86.6667 192.5,86C 190.359,85.4275 188.359,84.5942 186.5,83.5C 194.475,83.0494 202.475,81.8827 210.5,80C 216.457,76.2954 217.791,71.462 214.5,65.5C 215.982,60.6952 215.649,56.0286 213.5,51.5C 215.969,50.4314 218.302,49.0981 220.5,47.5C 220.833,47.8333 221.167,48.1667 221.5,48.5C 218.728,58.5938 219.061,68.5938 222.5,78.5 Z"/></g>
<g><path style="opacity:1" fill="#e22129" d="M 308.5,81.5 C 308.5,83.1667 308.5,84.8333 308.5,86.5C 303.833,86.5 299.167,86.5 294.5,86.5C 294.5,84.5 294.5,82.5 294.5,80.5C 296.294,78.2034 298.294,76.0367 300.5,74C 302.895,71.8549 305.062,72.0216 307,74.5C 307.29,76.9204 307.79,79.2537 308.5,81.5 Z"/></g>
<g><path style="opacity:1" fill="#ed5e6a" d="M 378.5,74.5 C 387.5,74.5 396.5,74.5 405.5,74.5C 405.5,78.5 405.5,82.5 405.5,86.5C 391.656,86.829 377.99,86.4957 364.5,85.5C 377.833,85.5 391.167,85.5 404.5,85.5C 404.5,82.1667 404.5,78.8333 404.5,75.5C 395.651,75.8264 386.984,75.493 378.5,74.5 Z"/></g>
<g><path style="opacity:1" fill="#e42d30" d="M 284.5,78.5 C 281.076,82.9482 276.409,85.4482 270.5,86C 259.505,86.4998 248.505,86.6665 237.5,86.5C 237.5,85.5 237.5,84.5 237.5,83.5C 242.019,80.9855 246.519,78.3189 251,75.5C 252.046,77.0905 253.213,78.5905 254.5,80C 264.703,84.7491 274.703,84.2491 284.5,78.5 Z"/></g>
<g><path style="opacity:1" fill="#e4282c" d="M 347.5,74.5 C 351.167,74.5 354.833,74.5 358.5,74.5C 358.5,78.5 358.5,82.5 358.5,86.5C 345.5,86.5 332.5,86.5 319.5,86.5C 319.5,82.8333 319.5,79.1667 319.5,75.5C 322.094,79.7202 325.927,82.0535 331,82.5C 337.343,81.5788 342.843,78.9121 347.5,74.5 Z"/></g>
</svg>
