<?xml version="1.0" standalone="no"?>
<!DOCTYPE svg PUBLIC "-//W3C//DTD SVG 20010904//EN"
 "http://www.w3.org/TR/2001/REC-SVG-20010904/DTD/svg10.dtd">
<svg version="1.0" xmlns="http://www.w3.org/2000/svg"
 width="1080.000000pt" height="1080.000000pt" viewBox="0 0 1080.000000 1080.000000"
 preserveAspectRatio="xMidYMid meet">

<g transform="translate(0.000000,1080.000000) scale(0.100000,-0.100000)"
fill="#000000" stroke="none">
<path d="M3745 6681 c-11 -5 -50 -12 -87 -15 -37 -4 -70 -12 -73 -17 -4 -5
-16 -9 -28 -9 -12 0 -35 -7 -51 -15 -15 -8 -33 -15 -38 -15 -26 0 -189 -82
-263 -132 -70 -48 -170 -141 -193 -180 -21 -36 -42 -44 -49 -18 -5 19 -14 20
-153 20 l-147 0 -33 -62 c-19 -35 -58 -100 -87 -145 -29 -46 -53 -85 -53 -88
0 -6 -97 -171 -121 -207 -11 -15 -19 -30 -19 -32 0 -3 -16 -30 -35 -61 -20
-30 -39 -63 -42 -73 -4 -9 -11 -21 -16 -27 -5 -5 -18 -28 -31 -50 -12 -22 -29
-41 -38 -43 -17 -3 -82 90 -149 213 -11 22 -45 76 -73 120 -29 44 -55 87 -58
95 -4 8 -53 92 -110 185 l-104 170 -152 3 -152 3 4 -678 3 -678 144 2 c79 1
152 2 162 2 16 1 17 25 17 351 0 312 2 350 16 350 22 0 47 -30 76 -90 7 -14
22 -39 34 -55 13 -17 27 -41 33 -55 6 -14 17 -34 23 -45 64 -101 84 -132 91
-145 4 -8 16 -28 27 -45 11 -16 24 -39 30 -50 5 -11 20 -33 33 -48 22 -26 30
-28 98 -30 l74 -1 40 67 c22 36 64 105 93 152 28 48 52 90 52 93 0 4 19 36 43
72 23 36 56 91 72 123 29 56 59 86 73 72 4 -4 8 -168 10 -365 l3 -358 157 3
c86 1 160 3 165 4 4 0 7 246 7 546 0 300 4 545 8 545 5 0 24 -7 42 -16 49 -25
145 -13 253 30 48 20 90 36 92 36 6 0 -7 -34 -15 -40 -3 -3 -20 -25 -37 -50
-87 -129 -128 -314 -104 -472 18 -114 66 -241 109 -286 6 -7 12 -19 12 -25 0
-7 18 -28 40 -47 22 -19 40 -39 40 -43 0 -15 -207 21 -252 44 -9 4 -39 11 -67
15 -42 5 -52 4 -57 -11 -9 -22 14 -44 57 -55 19 -5 86 -22 149 -38 63 -17 142
-33 175 -37 69 -8 140 -26 205 -50 40 -15 104 -33 180 -52 14 -3 84 -6 155 -6
109 0 145 4 222 26 121 33 240 97 311 164 21 20 38 16 57 -14 68 -103 189
-145 347 -120 44 8 47 7 60 -20 l13 -28 330 -1 c362 0 481 6 606 31 99 20 130
33 224 96 39 25 102 63 140 84 39 20 82 46 98 57 24 17 28 18 33 4 4 -9 1 -29
-5 -44 -7 -16 -13 -55 -14 -87 -2 -48 1 -60 14 -63 9 -1 24 4 32 13 27 26 37
17 37 -35 l0 -50 38 -2 c20 -1 101 -2 180 -4 l142 -2 0 44 c0 38 4 46 24 54
13 5 38 28 54 52 35 51 134 145 170 161 21 10 27 8 43 -12 15 -18 19 -41 20
-105 3 -192 1 -180 34 -186 41 -9 963 -5 972 4 9 8 14 189 7 236 l-5 35 -121
0 c-131 0 -146 6 -108 47 11 12 19 32 18 43 -5 36 -36 28 -86 -22 -26 -26 -59
-53 -73 -59 -26 -12 -250 -10 -270 2 -6 4 -10 180 -9 507 1 276 1 514 1 530
l-1 27 -177 -2 -178 -3 0 -40 c-1 -22 -2 -241 -3 -487 l-2 -448 -41 0 c-44 0
-103 -36 -163 -99 -38 -40 -52 -39 -66 5 -7 20 -18 47 -25 61 -10 19 -13 136
-14 516 l0 492 -173 3 c-130 2 -173 -1 -180 -10 -4 -7 -8 -214 -8 -459 0 -385
-2 -448 -15 -459 -8 -7 -15 -18 -15 -24 0 -13 -174 -126 -195 -126 -12 0 -15
17 -15 85 0 65 -5 96 -22 135 -12 27 -25 50 -30 50 -4 0 -8 6 -8 13 -1 20 -55
67 -112 97 -67 35 -71 56 -18 92 80 55 130 159 130 270 0 29 -6 65 -14 79 -7
14 -16 36 -19 50 -3 13 -22 40 -41 60 -79 80 -163 119 -299 138 -116 16 -826
15 -832 -1 -3 -7 -6 -280 -7 -607 -3 -516 -5 -595 -18 -601 -8 -4 -25 -12 -37
-18 -33 -17 -144 -15 -189 4 -54 22 -113 81 -120 120 -5 26 1 45 27 91 40 69
58 114 68 168 4 23 10 45 13 51 4 5 9 58 12 117 5 99 27 198 69 297 5 14 12
72 15 130 4 103 4 106 -22 137 -37 44 -76 51 -123 22 l-36 -23 6 60 c7 64 -11
161 -39 217 -9 18 -36 51 -59 75 -43 43 -162 112 -194 112 -9 0 -21 4 -27 9
-20 20 -148 34 -334 37 -107 2 -204 -1 -215 -5z m407 -67 c304 -51 432 -188
388 -418 -16 -87 -37 -92 -109 -28 -40 37 -178 100 -266 122 -88 23 -239 30
-346 17 -56 -7 -67 -6 -72 7 -8 20 -57 21 -57 2 0 -17 -56 -66 -76 -66 -7 0
-36 -13 -62 -30 -51 -31 -76 -37 -87 -20 -11 18 -45 10 -98 -22 -123 -77 -205
-103 -309 -99 -30 1 -43 26 -39 76 5 77 99 185 244 280 47 30 87 55 90 55 3 0
34 13 69 29 114 52 204 78 306 91 41 4 76 11 80 14 12 12 256 5 344 -10z m559
-474 c25 -14 26 -83 2 -184 -14 -62 -36 -109 -46 -95 -1 2 -18 36 -36 75 -31
67 -33 73 -20 107 7 21 17 37 21 37 4 0 8 5 8 12 0 11 38 58 47 58 3 0 13 -5
24 -10z m1015 -116 c51 -38 68 -70 68 -127 -1 -67 -14 -90 -67 -124 -41 -26
-47 -27 -222 -30 -104 -3 -186 0 -194 5 -10 7 -14 39 -16 123 -2 137 2 169 26
177 9 4 99 5 198 2 161 -4 182 -7 207 -26z m-1651 -23 c83 -31 99 -39 128 -63
33 -27 28 -58 -8 -58 -13 0 -26 -4 -29 -9 -4 -5 -30 -12 -59 -16 -28 -4 -59
-11 -67 -15 -9 -5 -99 -14 -200 -21 -168 -11 -184 -10 -196 5 -17 24 -6 56 30
86 17 14 38 33 48 43 10 9 24 17 32 17 7 0 19 7 26 15 7 8 22 15 34 15 11 0
28 5 36 10 27 17 171 12 225 -9z m240 -218 c20 -57 29 -191 18 -252 -11 -59
-34 -74 -65 -40 -30 33 -103 89 -116 89 -6 0 -12 3 -14 8 -4 9 -94 53 -169 82
-53 21 -69 34 -69 57 0 19 32 32 106 42 69 10 163 31 219 49 60 20 72 16 90
-35z m-615 -96 c30 -9 75 -21 100 -27 25 -6 54 -15 65 -20 11 -5 54 -22 95
-39 41 -16 91 -38 110 -47 90 -44 190 -132 190 -165 0 -23 -57 -89 -77 -89 -7
0 -13 -4 -13 -9 0 -15 -93 -50 -162 -61 -44 -7 -83 -7 -119 0 -64 12 -162 59
-204 97 -89 81 -144 254 -109 342 19 48 16 47 124 18z m1840 -195 c0 -10 -17
-25 -39 -34 -20 -10 -60 -38 -87 -63 -27 -25 -54 -45 -61 -45 -7 0 -13 -4 -13
-10 0 -5 -9 -10 -19 -10 -17 0 -20 9 -23 78 -2 57 1 80 11 88 8 6 60 11 123
12 94 0 108 -2 108 -16z m241 -10 c51 -23 79 -67 79 -124 0 -78 -15 -104 -78
-135 -54 -26 -63 -27 -212 -28 -146 -1 -197 5 -186 24 3 5 38 12 78 15 85 9
179 49 222 94 35 38 42 108 14 139 -10 11 -18 25 -18 31 0 15 52 6 101 -16z
m-127 -68 c7 -17 -55 -84 -77 -84 -7 0 -25 -7 -41 -15 -16 -8 -46 -18 -67 -21
-34 -6 -39 -4 -39 12 0 20 62 78 114 106 41 22 102 23 110 2z"/>
<path d="M8341 6286 c-14 -16 -11 -1319 2 -1333 5 -4 244 -8 533 -8 l524 0 5
40 c3 22 4 81 3 130 l-3 90 -355 5 c-195 3 -356 7 -357 8 -2 1 -3 63 -3 137 0
125 1 135 21 145 11 6 32 11 47 10 15 -1 143 -2 285 -1 l257 1 0 130 0 130
-293 0 c-215 0 -296 3 -305 12 -8 8 -12 50 -12 125 0 101 2 113 19 123 13 6
140 10 344 10 287 0 326 2 331 16 3 9 6 60 6 114 0 54 -3 105 -6 114 -5 14
-61 16 -519 16 -423 0 -515 -2 -524 -14z"/>
<path d="M5529 4465 c-81 -27 -73 -114 17 -171 29 -19 57 -34 62 -34 13 0 22
-25 22 -61 0 -23 -6 -32 -27 -40 -29 -11 -90 -4 -109 12 -8 6 -14 4 -18 -6 -6
-16 21 -31 77 -42 68 -14 144 56 117 109 -18 33 -51 68 -67 68 -7 0 -13 5 -13
10 0 6 -6 10 -13 10 -24 0 -67 50 -67 78 0 36 49 60 86 43 33 -15 54 -14 54 2
0 21 -80 36 -121 22z"/>
<path d="M5757 4472 c-57 -4 -60 -25 -4 -30 l36 -3 3 -157 c3 -132 5 -157 18
-157 13 0 15 25 18 152 2 134 5 154 20 162 10 5 27 9 37 8 12 -1 20 4 20 13 0
15 -43 19 -148 12z"/>
<path d="M6290 4302 c0 -155 2 -182 15 -182 13 0 15 21 15 125 0 94 3 125 13
125 6 -1 30 -26 52 -57 38 -53 75 -101 130 -168 16 -18 25 -24 25 -15 1 26 1
284 1 313 -1 17 -6 27 -16 27 -12 0 -15 -20 -15 -118 0 -65 -3 -122 -6 -125
-6 -5 -109 120 -149 181 -5 8 -22 29 -37 46 l-28 30 0 -182z"/>
<path d="M6633 4472 c-54 -5 -34 -32 23 -32 l23 0 3 -157 c3 -133 5 -158 18
-158 13 0 15 25 18 158 3 172 -1 164 65 157 13 -1 18 4 15 16 -2 13 -15 17
-68 18 -36 0 -80 0 -97 -2z"/>
<path d="M4290 4295 c0 -149 2 -175 15 -175 13 0 15 26 15 175 0 149 -2 175
-15 175 -13 0 -15 -26 -15 -175z"/>
<path d="M4889 4463 c-8 -2 -23 -17 -33 -34 -17 -29 -17 -33 -1 -69 12 -27 31
-46 64 -63 67 -37 91 -61 91 -90 0 -39 -38 -61 -92 -52 -24 4 -45 11 -48 16
-3 4 -12 4 -20 -1 -23 -14 -1 -29 62 -42 51 -11 58 -10 91 11 34 21 37 26 37
69 0 38 -5 51 -27 69 -14 13 -32 23 -40 23 -7 0 -13 5 -13 10 0 6 -5 10 -12
10 -21 0 -68 53 -68 77 0 13 11 29 26 39 21 15 31 15 58 6 43 -16 66 -15 66 2
0 20 -92 33 -141 19z"/>
<path d="M5150 4464 c-26 -11 -40 -37 -40 -76 0 -45 26 -75 96 -110 69 -34 82
-105 23 -123 -24 -8 -88 2 -105 16 -8 6 -14 4 -18 -6 -6 -17 17 -29 76 -40 59
-11 128 33 128 82 0 29 -44 79 -90 103 -81 42 -103 93 -54 125 23 15 32 16 66
4 29 -9 41 -10 50 -1 6 6 9 14 7 17 -9 8 -122 15 -139 9z"/>
<path d="M5370 4295 c0 -149 2 -175 15 -175 13 0 15 26 15 175 0 149 -2 175
-15 175 -13 0 -15 -26 -15 -175z"/>
<path d="M4067 4423 c-8 -21 -27 -64 -41 -95 -14 -31 -26 -64 -26 -72 0 -9 -4
-16 -10 -16 -5 0 -12 -16 -16 -35 -3 -19 -10 -38 -15 -41 -15 -9 -10 -44 6
-44 8 0 15 7 15 15 0 8 4 15 9 15 5 0 11 10 13 23 3 20 9 22 84 25 l82 3 18
-40 c19 -41 44 -55 44 -25 0 16 -10 40 -56 139 -12 28 -26 61 -30 75 -4 14
-10 27 -13 30 -4 3 -12 20 -17 39 -13 47 -29 49 -47 4z m47 -84 c5 -19 13 -36
16 -39 4 -3 10 -18 14 -34 8 -34 -4 -46 -51 -46 -62 0 -80 24 -48 66 8 10 15
24 15 31 0 26 21 64 32 61 7 -3 17 -20 22 -39z"/>
<path d="M4630 4413 c-12 -27 -26 -59 -32 -73 -5 -14 -16 -38 -23 -55 -7 -16
-20 -48 -29 -70 -10 -22 -21 -48 -26 -57 -14 -24 -12 -38 3 -38 8 0 22 17 33
38 l20 37 79 0 80 0 18 -37 c12 -25 26 -38 38 -38 16 0 18 4 11 18 -10 18 -32
69 -58 130 -8 20 -19 46 -24 57 -5 11 -18 41 -29 67 -12 26 -21 52 -21 57 0
26 -21 7 -40 -36z m40 -44 c0 -10 16 -51 43 -106 14 -30 6 -36 -51 -40 -67 -5
-78 5 -58 51 9 20 23 52 31 71 15 33 35 47 35 24z"/>
<path d="M6074 4443 c-5 -17 -10 -30 -42 -103 -6 -14 -20 -47 -32 -75 -11 -27
-24 -57 -29 -65 -5 -9 -12 -30 -16 -48 -5 -25 -3 -32 9 -32 9 0 19 12 22 27
12 45 27 53 101 53 76 0 82 -3 103 -44 15 -28 36 -43 46 -33 4 3 -1 16 -10 29
-9 12 -16 28 -16 35 0 10 -48 125 -69 163 -5 9 -12 30 -16 48 -3 18 -11 32
-16 32 -5 0 -9 7 -9 15 0 21 -19 19 -26 -2z m26 -78 c0 -8 5 -15 10 -15 6 0
10 -7 10 -16 0 -9 7 -31 16 -50 24 -51 15 -62 -50 -59 -64 2 -71 6 -57 32 11
20 35 78 45 106 7 21 26 23 26 2z"/>
<path d="M2044 4326 c-3 -8 -4 -27 -2 -43 l3 -28 790 -3 c435 -1 805 0 823 3
31 6 33 8 30 43 l-3 37 -818 3 c-702 2 -818 0 -823 -12z"/>
<path d="M7052 4331 c-8 -5 -12 -22 -10 -42 l3 -34 850 0 850 0 3 34 c2 20 -2
37 -10 42 -7 5 -386 9 -843 9 -456 0 -836 -4 -843 -9z"/>
<path d="M550 608 l0 -123 30 -1 c27 -1 30 2 30 27 0 26 3 29 33 29 54 0 77
10 77 34 0 35 -14 50 -30 31 -7 -8 -28 -15 -46 -15 l-34 0 -2 53 c-1 28 -2 60
-1 70 0 12 -8 17 -29 17 l-28 0 0 -122z"/>
<path d="M1204 667 c-3 -8 -4 -45 -2 -83 2 -56 6 -69 21 -72 13 -3 17 3 17 27
0 27 3 31 28 31 62 0 82 79 26 100 -36 14 -84 12 -90 -3z m81 -47 c0 -18 -6
-26 -22 -28 -20 -3 -23 1 -23 28 0 27 3 31 23 28 16 -2 22 -10 22 -28z"/>
<path d="M1360 595 c0 -69 3 -85 15 -85 12 0 15 16 15 85 0 69 -3 85 -15 85
-12 0 -15 -16 -15 -85z"/>
<path d="M1430 674 c0 -4 10 -23 22 -42 l22 -35 -22 -38 c-26 -45 -27 -49 -8
-49 8 0 24 12 36 28 12 15 23 22 26 16 12 -28 32 -46 47 -43 15 4 14 9 -8 42
l-26 38 20 35 c24 41 26 54 8 54 -7 0 -21 -14 -31 -31 l-18 -31 -19 31 c-16
27 -49 43 -49 25z"/>
<path d="M1607 673 c-4 -3 -7 -42 -7 -85 l0 -78 55 0 c42 0 55 3 55 15 0 10
-11 15 -35 15 -28 0 -35 4 -35 19 0 15 8 21 33 23 17 2 32 8 32 13 0 6 -15 11
-32 13 -25 2 -33 8 -33 23 0 15 7 19 35 19 24 0 35 5 35 15 0 11 -12 15 -48
15 -27 0 -52 -3 -55 -7z"/>
<path d="M1750 595 l0 -85 50 0 c38 0 50 4 50 15 0 10 -11 15 -35 15 l-35 0 0
70 c0 56 -3 70 -15 70 -12 0 -15 -16 -15 -85z"/>
<path d="M1906 659 c-21 -16 -26 -29 -26 -64 0 -35 5 -48 26 -64 15 -12 36
-21 48 -21 27 0 66 27 66 46 0 18 -17 18 -36 -1 -23 -22 -53 -18 -65 9 -25 54
21 107 60 72 22 -20 41 -21 41 -2 0 19 -39 46 -66 46 -12 0 -33 -9 -48 -21z"/>
<path d="M2060 611 c0 -61 3 -72 22 -85 30 -21 71 -20 91 2 21 23 25 156 5
150 -8 -3 -15 -30 -18 -69 -4 -51 -9 -64 -23 -67 -33 -7 -47 17 -47 79 0 46
-3 59 -15 59 -12 0 -15 -14 -15 -69z"/>
<path d="M2230 665 c0 -9 9 -15 25 -15 24 0 25 -2 25 -70 0 -56 3 -70 15 -70
12 0 15 14 15 70 0 68 1 70 25 70 16 0 25 6 25 15 0 12 -14 15 -65 15 -51 0
-65 -3 -65 -15z"/>
<path d="M2505 668 c-3 -7 -16 -46 -29 -85 -23 -68 -24 -73 -7 -73 10 0 21 9
24 20 4 15 14 20 37 20 23 0 33 -5 37 -20 3 -11 13 -20 23 -20 17 0 17 6 -9
83 -22 66 -32 83 -49 85 -12 2 -24 -3 -27 -10z m38 -60 c7 -26 1 -38 -19 -38
-16 0 -17 5 -8 38 8 28 20 28 27 0z"/>
<path d="M2640 595 c0 -69 3 -85 15 -85 12 0 15 16 15 85 0 69 -3 85 -15 85
-12 0 -15 -16 -15 -85z"/>
<path d="M2394 536 c-8 -22 3 -33 18 -18 9 9 9 15 0 24 -9 9 -13 7 -18 -6z"/>
</g>
</svg>
